<svg class="svg" xmlns="http://www.w3.org/2000/svg" xmlns:xlink="http://www.w3.org/1999/xlink" width="10" height="10"><path d="M5.64313 3.12992C5.01171 3.53283 4.42258 3.99852 3.88474 4.51983C3.37878 5.04484 2.93082 5.62267 2.54852 6.24354C2.54852 6.24354 4.10487 4.77359 5.64313 3.99517C6.60047 3.52049 7.63739 3.2271 8.70152 3.12992C8.70152 3.12992 8.80147 3.1501 8.70152 3.3721C8.65025 3.48592 8.15521 4.0459 7.67264 4.77682C7.2237 5.45693 6.78489 6.31255 6.78489 6.31255C6.78489 6.31255 7.1548 7.74708 7.30226 8.54267C7.44971 9.33826 7.48338 9.6639 7.12898 9.41274C6.80632 9.18344 4.62011 7.77105 4.22337 7.51471C4.19562 7.49684 4.31043 7.56719 4.1752 7.48371C4.03998 7.40022 4.5712 6.80027 5.2445 6.05924C5.75613 5.51618 6.29792 5.00232 6.86722 4.52006C5.95974 4.95554 5.12489 5.52842 4.39223 6.21862C3.64513 6.89901 2.94629 7.63053 2.30066 8.40786C1.77952 9.04282 1.48578 9.53981 1.33833 9.49748C1.19087 9.45515 1.26068 8.74488 1.36698 7.97587C1.76412 5.24259 2.92905 2.67824 4.72622 0.580926C4.72622 0.580926 4.80594 0.491488 4.87555 0.50066C4.94516 0.509832 5.01007 0.497886 5.2015 1.15519C5.39293 1.8125 5.64313 3.12992 5.64313 3.12992Z" fill="none" stroke-width="1" stroke="#B3B3B3"></path></svg>